<svg version="1.1" viewBox="0.0 0.0 424.4251968503937 326.68241469816275" fill="none" stroke="none" stroke-linecap="square" stroke-miterlimit="10" xmlns:xlink="http://www.w3.org/1999/xlink" xmlns="http://www.w3.org/2000/svg"><clipPath id="p.0"><path d="m0 0l424.4252 0l0 326.6824l-424.4252 0l0 -326.6824z" clip-rule="nonzero"/></clipPath><g clip-path="url(#p.0)"><path fill="#000000" fill-opacity="0.0" d="m0 0l424.4252 0l0 326.6824l-424.4252 0z" fill-rule="evenodd"/><path fill="#f1c232" d="m52.349083 161.58267l0 0c0 -63.664948 40.350777 -115.27559 90.125984 -115.27559l0 0c23.902893 0 46.826797 12.145073 63.7287 33.76344c16.901901 21.618362 26.397278 50.939163 26.397278 81.512146l0 0c0 63.664963 -40.35077 115.275604 -90.12598 115.275604l0 0c-49.775208 0 -90.125984 -51.61064 -90.125984 -115.275604zm22.711746 0l0 0c0 51.121597 30.18238 92.56384 67.41424 92.56384c37.231857 0 67.41423 -41.442245 67.41423 -92.56384c0 -51.121597 -30.182373 -92.563835 -67.41423 -92.563835l0 0c-37.231857 0 -67.41424 41.442238 -67.41424 92.563835z" fill-rule="evenodd"/><path fill="#f1c232" d="m141.15262 196.5008q5.921875 0 11.421875 -1.203125q5.5 -1.203125 10.75 -3.796875l0 13.171875q-11.171875 4.078125 -23.671875 4.078125l-4.828125 35.0l-12.078125 0l4.75 -36.0q-14.25 -2.90625 -21.796875 -12.828125q-7.53125 -9.921875 -7.53125 -26.75q0 -9.328125 2.90625 -16.953125q2.921875 -7.625 8.25 -13.125q5.34375 -5.5 12.75 -8.625q7.421875 -3.125 16.328125 -3.453125l3.59375 -27.671875l12.328125 0l-3.75 28.328125q3.328125 0.421875 6.5 1.21875q3.171875 0.78125 6.25 1.875l0 13.65625q-3.5 -1.65625 -7.09375 -2.828125q-3.578125 -1.171875 -7.234375 -1.828125l-7.84375 57.734375zm-4.40625 -58.078125q-4.921875 0.671875 -9.21875 2.890625q-4.28125 2.203125 -7.453125 5.90625q-3.15625 3.703125 -4.953125 8.796875q-1.796875 5.078125 -1.796875 11.40625q0 10.921875 4.171875 17.71875q4.171875 6.78125 11.75 9.609375l7.5 -56.328125z" fill-rule="nonzero"/><path fill="#f1c232" d="m180.15749 161.58267l0 0c0 -63.664948 40.35077 -115.27559 90.12599 -115.27559l0 0c23.902893 0 46.826782 12.145073 63.72867 33.76344c16.901917 21.618362 26.397308 50.939163 26.397308 81.512146l0 0c0 63.664963 -40.35077 115.275604 -90.12598 115.275604l0 0c-49.775223 0 -90.12599 -51.61064 -90.12599 -115.275604zm22.711746 0l0 0c0 51.121597 30.182373 92.56384 67.414246 92.56384c37.231842 0 67.414215 -41.442245 67.414215 -92.56384c0 -51.121597 -30.182373 -92.563835 -67.414215 -92.563835l0 0c-37.231873 0 -67.414246 41.442238 -67.414246 92.563835z" fill-rule="evenodd"/><path fill="#f1c232" d="m284.5908 196.5008q5.921875 0 11.421875 -1.203125q5.5 -1.203125 10.75 -3.796875l0 13.171875q-11.171875 4.078125 -23.671875 4.078125l-4.828125 35.0l-12.078125 0l4.75 -36.0q-14.25 -2.90625 -21.79686 -12.828125q-7.53125 -9.921875 -7.53125 -26.75q0 -9.328125 2.90625 -16.953125q2.921875 -7.625 8.25 -13.125q5.3437347 -5.5 12.749985 -8.625q7.421875 -3.125 16.328125 -3.453125l3.59375 -27.671875l12.328125 0l-3.75 28.328125q3.328125 0.421875 6.5 1.21875q3.171875 0.78125 6.25 1.875l0 13.65625q-3.5 -1.65625 -7.09375 -2.828125q-3.578125 -1.171875 -7.234375 -1.828125l-7.84375 57.734375zm-4.40625 -58.078125q-4.921875 0.671875 -9.21875 2.890625q-4.28125 2.203125 -7.453125 5.90625q-3.15625 3.703125 -4.953125 8.796875q-1.796875 5.078125 -1.796875 11.40625q0 10.921875 4.171875 17.71875q4.171875 6.78125 11.75 9.609375l7.5 -56.328125z" fill-rule="nonzero"/></g></svg>